<?xml version="1.0" standalone="no"?><!DOCTYPE svg PUBLIC "-//W3C//DTD SVG 1.1//EN" "http://www.w3.org/Graphics/SVG/1.1/DTD/svg11.dtd"><svg t="1777300594395" class="icon" viewBox="0 0 1024 1024" version="1.1" xmlns="http://www.w3.org/2000/svg" p-id="1890" xmlns:xlink="http://www.w3.org/1999/xlink" width="200" height="200"><path d="M346.017947 0h492.556057c51.392731 0 93.055939 41.661619 93.055939 93.062298v837.533655c0 51.399089-41.661619 93.062298-93.055939 93.062298H187.152227C135.757907 1023.658251 94.096288 981.996632 94.096288 930.595953V251.92166a46.547839 46.547839 0 0 1 13.622284-32.901712L313.117826 13.628643A46.504921 46.504921 0 0 1 346.019537 0z m0 0" fill="#CCD4FF" p-id="1891"></path><path d="M210.418199 279.180534h186.118237c38.546138 0 69.796326 31.24383 69.796326 69.796326 0 38.546138-31.24542 69.789968-69.796326 69.789968H210.418199c-38.546138 0-69.796326-31.24383-69.796326-69.789968 0-38.552496 31.250188-69.796326 69.796326-69.796326z m0 0" fill="#A4B1FF" p-id="1892"></path><path d="M419.800818 65.803423v194.104043c0 36.341457-29.461965 65.803423-65.803423 65.803422H159.893352C123.551895 325.710888 94.096288 296.248923 94.096288 259.907466c0-17.453055 6.930357-34.187642 19.273069-46.531944l194.097684-194.102453A65.832034 65.832034 0 0 1 353.995806 0c36.341457 0 65.803423 29.461965 65.803423 65.803423z m0 0" fill="#DFE5FF" p-id="1893"></path><path d="M150.257613 223.011262L317.107549 56.169273c12.846593-12.852951 33.677403-12.852951 46.525586 0 12.851362 12.846593 12.851362 33.677403 0 46.530354L196.786377 269.543205c-12.846593 12.846593-33.677403 12.846593-46.525585 0-12.851362-12.852951-12.851362-33.683761-0.004769-46.530354z m0 0" fill="#EFF2FF" p-id="1894"></path><path d="M512.863116 139.586293h232.64859c25.699544 0 46.531944 20.832399 46.531944 46.531944v279.180534c0 25.699544-20.832399 46.530354-46.531944 46.530354H512.863116c-25.699544 0-46.530354-20.83081-46.530354-46.530354V186.118237c0-25.693186 20.83081-46.531944 46.530354-46.531944z m0 0" fill="#005EEE" p-id="1895"></path><path d="M326.744879 884.065599H280.214525c-25.699544-0.025433-46.512869-20.881675-46.482668-46.574861 0.025433-25.662985 20.819683-46.457236 46.482668-46.481078h46.530354c25.693186 0 46.531944 20.83081 46.531943 46.530354-0.006358 25.693186-20.838757 46.525585-46.531943 46.525585z m0 0M745.511706 884.065599H512.863116c-25.699544-0.025433-46.506511-20.881675-46.481079-46.574861 0.023843-25.662985 20.818093-46.457236 46.481079-46.481078h232.64859c25.699544 0 46.531944 20.83081 46.531944 46.530354 0 25.693186-20.832399 46.525585-46.531944 46.525585z m0 0M745.511706 697.947362H280.214525c-25.699544 0.012716-46.538302-20.813325-46.549429-46.512869-0.012716-25.693186 20.811735-46.536712 46.51128-46.54307h465.33533c25.699544-0.012716 46.538302 20.813325 46.549429 46.506511 0.006358 25.699544-20.811735 46.541481-46.51128 46.549428h-0.038149z m0 0" fill="#163969" p-id="1896"></path><path d="M698.981352 255.914563c0 38.546138-31.24383 69.796326-69.796325 69.796325-38.546138 0-69.791557-31.250188-69.791557-69.796325 0-38.546138 31.24542-69.796326 69.791557-69.796326 38.552496 0 69.796326 31.250188 69.796325 69.796326z m0 0M698.981352 372.242832h-139.587882c-25.699544 0.011127-46.517638 20.854653-46.504922 46.555786 0.017485 25.674112 20.824451 46.487437 46.504922 46.500153h139.587882c25.699544 0 46.530354-20.832399 46.530354-46.531943 0-25.693186-20.83081-46.525585-46.530354-46.525586z m0 0" fill="#FFD700" p-id="1897"></path><path d="M536.129087 511.829125h186.118237c12.846593 0 23.264382 10.411431 23.264382 23.265972 0 12.846593-10.417789 23.264382-23.264382 23.264382H536.129087c-12.846593 0-23.265972-10.417789-23.265971-23.264382 0-12.846593 10.419379-23.265972 23.265971-23.265972z m0 0" fill="#A4B1FF" p-id="1898"></path></svg>