<?xml version="1.0" standalone="no"?><!DOCTYPE svg PUBLIC "-//W3C//DTD SVG 1.1//EN" "http://www.w3.org/Graphics/SVG/1.1/DTD/svg11.dtd"><svg t="1777300853191" class="icon" viewBox="0 0 1024 1024" version="1.1" xmlns="http://www.w3.org/2000/svg" p-id="4051" xmlns:xlink="http://www.w3.org/1999/xlink" width="200" height="200"><path d="M1023.820355 186.327356c0 77.104483-62.503915 139.609988-139.614758 139.609987-77.104483 0-139.609988-62.505504-139.609987-139.609987 0-77.104483 62.505504-139.614757 139.609987-139.614757 77.110842 0 139.614757 62.510274 139.614758 139.614757z m0 0" fill="#0784FF" p-id="4052"></path><path d="M800.773777 102.889176c12.847038-12.848627 33.682736-12.848627 46.537723 0l27.261601 27.261602c12.848627 12.848627 12.848627 33.684326 0 46.539312-12.854987 12.848627-33.689095 12.848627-46.537722 0l-27.263192-27.263191c-12.848627-12.848627-12.848627-33.682736 0-46.537723z m0 0" fill="#4CC66E" p-id="4053"></path><path d="M744.59561 186.327356c0 77.104483 62.505504 139.609988 139.609987 139.609987H885.167416c0.044514-0.006359 0.079489-0.006359 0.117644-0.006359h0.527808c0.044514-0.006359 0.087438-0.006359 0.125593-0.006359h0.310008l0.160568-0.006359h0.057232c0.07313 0 0.14308 0 0.216211-0.006359h0.211441l0.087438-0.006359h0.21621l0.125593-0.00636 0.092208-0.006359h0.2178c0.042924-0.006359 0.079489-0.006359 0.124003-0.006359h0.093797l0.124003-0.006359h0.092208c0.044514-0.006359 0.087438-0.006359 0.130362-0.006359h0.087438l0.136721-0.004769 0.07472-0.00636h0.14944l0.068361-0.006359c0.14308 0 0.29093-0.006359 0.43401-0.012718h0.063592c0.047693-0.006359 0.098567-0.006359 0.147849-0.006359l0.087439-0.006359 0.124003-0.006359 0.098566-0.006359h0.117644l0.093797-0.00636 0.124003-0.006359 0.093798-0.004769c0.036565 0 0.085848 0 0.124003-0.006359h0.092207c0.038155-0.006359 0.081079-0.006359 0.125593-0.006359l0.092207-0.006359c0.044514 0 0.087438-0.006359 0.130363-0.00636l0.074719-0.006359c0.055642 0 0.100156 0 0.14944-0.006359h0.07472c0.047693-0.006359 0.104926-0.006359 0.160568-0.006359l0.050873-0.006359c0.07313-0.006359 0.14308-0.006359 0.209851-0.011129h0.07472l0.143081-0.006359 0.079489-0.006359c0.044514 0 0.095387-0.006359 0.131952-0.006359l0.092207-0.006359c0.038155 0 0.087438-0.006359 0.125593-0.006359l0.092208-0.006359 0.124003-0.00636 0.087438-0.006359c0.042924 0 0.087438-0.006359 0.130362-0.006359l0.087438-0.006359c0.042924 0 0.079489-0.004769 0.124003-0.004769l0.092208-0.006359 0.119233-0.00636 0.098567-0.006359 0.117644-0.006359 0.093797-0.006359 0.124003-0.006359 0.087438-0.006359 0.211441-0.019078h0.00477c0.068361 0 0.14308-0.004769 0.211441-0.011128l0.063591-0.006359c0.047693 0 0.098567-0.006359 0.14785-0.006359l0.087438-0.006359 0.124003-0.012719 0.092208-0.006359c0.038155 0 0.081079-0.006359 0.119233-0.006359l0.098567-0.006359 0.111285-0.004769 0.106515-0.012719 0.111285-0.006359 0.100156-0.006359 0.111285-0.006359 0.100156-0.006359 0.117644-0.012719 0.092208-0.006359c0.044514-0.006359 0.087438-0.006359 0.124003-0.006359l0.087438-0.004769c0.049283-0.006359 0.093797-0.012718 0.143081-0.012718l0.06836-0.00636 0.211441-0.019077 0.07472-0.006359 0.136722-0.012718 0.092207-0.006359 0.124003-0.011129 0.093797-0.006359 0.111285-0.012718 0.100156-0.00636c0.036565-0.006359 0.079489-0.006359 0.111285-0.012718l0.100157-0.006359 0.117644-0.011128 0.092207-0.00636c0.044514-0.006359 0.081079-0.006359 0.124003-0.012718l0.087438-0.006359 0.117644-0.012718 0.100156-0.006359 0.111285-0.012719 0.100157-0.006359 0.124003-0.011128 0.087438-0.006359 0.124003-0.012719c0.062002-0.006359 0.130362-0.019077 0.198723-0.025436l0.085848-0.006359 0.111285-0.011129c0.038155-0.006359 0.06995-0.006359 0.106515-0.012718l0.100157-0.006359c0.036565-0.006359 0.07313-0.006359 0.111284-0.012718l0.098567-0.012719 0.111285-0.012718 0.100156-0.004769 0.211441-0.025437c0.036565 0 0.07472-0.006359 0.111285-0.012718l0.093797-0.006359 0.117644-0.012718 0.093797-0.011129 0.117644-0.012718 0.093798-0.012718 0.111284-0.012719 0.098567-0.006359 0.130362-0.019077 0.081079-0.00477c0.068361-0.012718 0.136721-0.019077 0.206672-0.025436l0.079489-0.012718 0.130362-0.012719 0.092208-0.011128 0.111285-0.012718 0.317956-0.038155 0.100157-0.012719 0.111284-0.017487 0.098567-0.006359 0.111285-0.019078 0.095387-0.012718c0.036565-0.006359 0.07313-0.006359 0.111285-0.011128l0.209851-0.025437 0.100156-0.012718 0.104926-0.019078c0.031796 0 0.07472-0.006359 0.106515-0.011128l0.104926-0.012718 0.111285-0.012719c0.057232-0.012718 0.124003-0.019077 0.181235-0.025436l0.117644-0.017488 0.098567-0.012718 0.106515-0.012718 0.104926-0.019078 0.106515-0.012718a0.546885 0.546885 0 0 1 0.104926-0.011128l0.100156-0.019078 0.111285-0.012718 0.098567-0.012718 0.106515-0.017488 0.104926-0.012718 0.106515-0.019078 0.098567-0.012718 0.104926-0.019077c0.038155-0.004769 0.068361-0.004769 0.100156-0.011129l0.111285-0.019077 0.087438-0.012718 0.117644-0.019078 0.087438-0.011128c0.154209-0.019077 0.310008-0.044514 0.465806-0.068361l0.055643-0.006359 0.130362-0.019078 0.079489-0.012718c0.038155-0.006359 0.082669-0.012718 0.119234-0.023847l0.087438-0.012718 0.117644-0.019077 0.092207-0.012718 0.111285-0.019078 0.089028-0.011128 0.124003-0.019078 0.085848-0.019077c0.044514-0.006359 0.07472-0.012718 0.119234-0.017488l0.092208-0.012718 0.111284-0.019077 0.093798-0.019078 0.111284-0.017487 0.087439-0.012719 0.124003-0.019077 0.06836-0.012718 0.22257-0.036565 0.213031-0.038155 0.104926-0.017488 0.104925-0.019077 0.100157-0.019078 0.111284-0.019077 0.093798-0.017488 0.104925-0.019077 0.100157-0.019077 0.111284-0.017488 0.093798-0.019077 0.111284-0.019078 0.087439-0.012718 0.117644-0.023847 0.085848-0.012718 0.119234-0.019077 0.085848-0.019078c0.038155-0.004769 0.081079-0.011128 0.119234-0.023847l0.06836-0.012718c0.154209-0.025437 0.303649-0.055642 0.453088-0.079489l0.07949-0.014308 0.119233-0.023847 0.085849-0.019077 0.125593-0.019078 0.07313-0.017487 0.130362-0.025437 0.07472-0.012718 0.124003-0.023847 0.074719-0.012718 0.130363-0.025437 0.074719-0.012718 0.130363-0.023847 0.06836-0.019077 0.136722-0.025437 0.063591-0.011128 0.135132-0.025437 0.055642-0.012718c0.230519-0.042924 0.472166-0.092207 0.709043-0.14308l0.023847-0.006359 0.155799-0.031796 0.049283-0.011129c0.044514-0.006359 0.093797-0.019077 0.136721-0.025436l0.068361-0.011129 0.130362-0.031795 0.07472-0.012719 0.124003-0.023846 0.07472-0.019078 0.130362-0.025436 0.068361-0.017488 0.130362-0.025436 0.068361-0.019078 0.136721-0.023846 0.049283-0.012719 0.155799-0.031795 0.012718-0.00636c0.186005-0.036565 0.378368-0.079489 0.564374-0.124003h0.006359l0.14308-0.031795 0.062002-0.011129 0.136721-0.031795 0.055642-0.011129 0.143081-0.038155 0.062001-0.012718 0.130363-0.031796 0.06836-0.011128 0.130363-0.031796 0.074719-0.017487a0.992025 0.992025 0 0 0 0.130363-0.031796l0.062001-0.012718c0.042924-0.011128 0.093797-0.017488 0.143081-0.031796l0.042924-0.011128c0.055642-0.012718 0.100156-0.025437 0.155799-0.036565l0.031795-0.00636c0.235288-0.057232 0.470576-0.111285 0.713813-0.168517l0.031795-0.006359 0.141491-0.031795 0.062002-0.017488 0.136721-0.031796 0.055642-0.011128 0.143081-0.038155 0.055642-0.012718 0.143081-0.036565 0.055642-0.012719a1.081053 1.081053 0 0 0 0.136722-0.031795l0.063591-0.011129 0.135132-0.038154 0.055642-0.011129 0.14944-0.038155 0.031795-0.006359c0.302059-0.07472 0.607297-0.154209 0.912536-0.228929l0.017487-0.006359c0.057232-0.019077 0.106515-0.031796 0.155799-0.044514l0.049283-0.011128c0.044514-0.006359 0.100156-0.025437 0.143081-0.038155l0.397446-0.098567 0.042924-0.012718 0.149439-0.038155 0.044514-0.011128 0.154209-0.044514 0.025437-0.006359c0.310008-0.079489 0.620015-0.166927 0.931613-0.248006a1.556398 1.556398 0 0 1 0.160568-0.042924l0.038155-0.012719 0.149439-0.042924 0.042924-0.012718 0.198723-0.049283c0.042924-0.012718 0.092207-0.031796 0.143081-0.044514l0.049283-0.012719 0.143081-0.042924 0.055642-0.012718 0.14308-0.036565 0.042925-0.019077 0.155798-0.042925 0.012719-0.006359c0.303649-0.079489 0.613656-0.174876 0.912535-0.260724l0.023847-0.006359c0.057232-0.012718 0.106515-0.031796 0.162158-0.042924l0.031795-0.012719 0.154209-0.044514 0.044514-0.011128 0.14785-0.044514 0.038155-0.012718a1.133515 1.133515 0 0 1 0.154209-0.042924l0.038155-0.012719 0.154209-0.049283 0.031795-0.006359 0.168517-0.049283 0.011129-0.00636 1.292494-0.391086 0.012718-0.006359 0.166927-0.055643 0.025437-0.006359 0.166927-0.049283 0.025436-0.006359 0.186005-0.063592 0.174876-0.047693v-0.006359c0.434011-0.136721 0.861662-0.273443 1.297263-0.416523l0.006359-0.00636 0.174876-0.055642 0.015898-0.006359 0.162158-0.055643 0.031796-0.006359 0.160568-0.055642 0.019077-0.006359 0.174877-0.063592h0.004769c0.491243-0.166927 0.982486-0.327495 1.472139-0.502371h0.006359l0.174876-0.062002 0.011129-0.006359c0.055642-0.017488 0.119234-0.042924 0.174876-0.062001l0.012718-0.006359 0.173287-0.055643 0.006359-0.006359c0.608887-0.211441 1.216184-0.434011 1.825071-0.65817l0.006359-0.006359a1.432395 1.432395 0 0 0 0.174876-0.062002l0.011129-0.006359a140.082153 140.082153 0 0 0 74.719808-65.243111l0.895048-1.707427v-0.006359l0.085848-0.160568v-0.006359l0.087438-0.168517 0.006359-0.012719 0.087439-0.160568c0.205082-0.403805 0.403805-0.80761 0.608886-1.205055v-0.00636l0.085849-0.174876 0.07472-0.154209 0.087438-0.174876 0.019077-0.030206 0.068361-0.136721 0.017487-0.042924 0.068361-0.143081 0.012718-0.031795 0.079489-0.160569 0.492833-1.012691 0.011129-0.031796 0.06836-0.143081 0.019078-0.030205 0.06836-0.143081 0.019078-0.036565 0.068361-0.14308 0.017487-0.036565 0.063591-0.136722 0.017488-0.049283 0.068361-0.130362 0.012718-0.038155 0.068361-0.14944 0.012718-0.017487c0.098567-0.211441 0.205082-0.435601 0.303649-0.651811l0.012718-0.038155 0.062001-0.130362 0.025437-0.049284 0.055642-0.124003 0.031796-0.063591 0.047693-0.111285 0.031796-0.068361 0.055643-0.111284 0.031795-0.07472 0.047694-0.111285 0.031795-0.063591 0.050873-0.116055 0.036565-0.074719 0.049284-0.111285 0.031795-0.069951 0.049284-0.111284 0.031795-0.062002 0.049284-0.124003 0.012718-0.019077 0.117644-0.273443 0.031795-0.068361 0.042925-0.098566 0.042924-0.087438 0.038155-0.093798 0.042924-0.092207 0.036565-0.087438 0.044514-0.098567 0.042924-0.093797 0.07472-0.186005 0.087438-0.186004 0.036565-0.100157 0.038154-0.085848 0.085849-0.187594 0.038155-0.092208 0.042924-0.093797 0.036565-0.092207 0.06836-0.168517 0.050873-0.111285 0.036565-0.093797 0.038155-0.085849 0.042924-0.100156 0.036565-0.093797 0.038155-0.085848 0.042924-0.100157 0.038155-0.085848 0.042924-0.111285 0.031796-0.082669 0.047693-0.104925 0.031796-0.079489 0.049283-0.119234 0.031796-0.068361 0.07472-0.186005 0.062001-0.14308 0.019078-0.042924 0.062001-0.168517 0.012719-0.023847c0.055642-0.130362 0.104926-0.260724 0.154209-0.391087l0.012718-0.025436 0.068361-0.162158 0.019077-0.047693 0.055642-0.143081 0.023847-0.057232 0.057232-0.136722 0.017488-0.049283 0.055642-0.14308 0.019078-0.055643 0.063591-0.136721 0.017488-0.055642 0.055642-0.136722 0.019077-0.055642 0.07472-0.186005 0.07472-0.193953c0.104926-0.260724 0.205082-0.527808 0.303649-0.788533l0.012718-0.017487 0.068361-0.181236 0.006359-0.017487 0.06836-0.168517 0.012719-0.036565 0.062001-0.168517 0.00477-0.023847 0.06836-0.174876 0.006359-0.017488 0.068361-0.193953h0.006359c0.14944-0.402215 0.298879-0.799661 0.44196-1.203466l0.07313-0.192364v-0.012718c0.050873-0.130362 0.093797-0.260724 0.14308-0.391087a139.074231 139.074231 0 0 0 6.82017-27.616123c0.047693-0.36565 0.098567-0.739249 0.135132-1.106489 0.063591-0.421293 0.124003-0.844175 0.174876-1.267057 0.44037-3.564294 0.739249-7.171512 0.906176-10.816885v-0.012718l0.019078-0.391087v-0.038155l0.006359-0.209851 0.006359-0.050873 0.011128-0.36565v-0.063592l0.00636-0.173286 0.006359-0.079489v-0.100157l0.006359-0.149439 0.006359-0.092208v-0.100156l0.006359-0.124003 0.006359-0.117644v-0.087438l0.006359-0.160568v-0.07472l0.006359-0.117644v-0.087438l0.00477-0.14944v-0.248006l0.006359-0.06836v-0.198723l0.006359-0.168517v-0.068361l0.006359-0.173286v-0.211442l0.006359-0.049283v-0.235288l0.00636-0.187594v-0.031796l0.006359-0.173286v-0.496013l0.006359-0.186004v-2.453036l-0.006359-0.14308v-0.335444l-0.006359-0.179646v-0.063591l-0.00636-0.235288v-0.241647l-0.019077-0.087438v-0.154209l-0.006359-0.093797v-0.241647l-0.00477-0.143081v-0.100156l-0.006359-0.14785v-0.243237l-0.006359-0.087438-0.006359-0.154209v-0.087438l-0.006359-0.235288v-0.019077l-0.006359-0.217801-0.006359-0.085848-0.006359-0.155799v-0.093797l-0.00636-0.14785V181.23528l-0.006359-0.149439-0.006359-0.085849-0.004769-0.155799v-0.087438l-0.006359-0.149439-0.006359-0.092208-0.00636-0.149439v-0.092208l-0.012718-0.211441v-0.019077l-0.012718-0.241647v-0.063592l-0.012718-0.179645v-0.07472l-0.00477-0.154209-0.006359-0.093797-0.006359-0.14944-0.006359-0.092207-0.006359-0.143081-0.006359-0.100156-0.012719-0.14308v-0.098567l-0.012718-0.136721v-0.098567l-0.011128-0.155799-0.00636-0.079489-0.012718-0.230518v-0.049284l-0.019077-0.193953v-0.079489l-0.012718-0.155799-0.00636-0.093797-0.006359-0.143081-0.004769-0.098566-0.012718-0.136722-0.006359-0.098566-0.00636-0.143081-0.012718-0.093797-0.006359-0.14944-0.006359-0.085848-0.011129-0.168517-0.006359-0.068361-0.038155-0.476934v-0.025437l-0.019077-0.211441-0.004769-0.07472-0.019078-0.241647-0.012718-0.155799-0.006359-0.087438-0.012718-0.154209-0.006359-0.087438-0.011129-0.149439-0.012718-0.085849-0.012719-0.162158-0.006359-0.074719-0.019077-0.198723v-0.036565l-0.023847-0.236878v-0.023847l-0.019077-0.211441-0.006359-0.07472-0.019078-0.160568-0.006359-0.081079-0.011128-0.155799-0.012719-0.087438-0.012718-0.147849-0.006359-0.087439-0.019077-0.149439-0.00636-0.092208-0.011128-0.155798-0.012718-0.07472-0.012719-0.179646-0.012718-0.055642c-0.012718-0.162158-0.031796-0.317957-0.042924-0.472166l-0.006359-0.055642-0.025437-0.181235-0.006359-0.07472-0.017487-0.154209-0.006359-0.087438-0.019078-0.14944-0.006359-0.092207-0.017488-0.143081-0.012718-0.087438-0.012718-0.154209-0.012718-0.081079-0.019078-0.162158-0.006359-0.074719-0.023847-0.190774-0.006359-0.038155-0.031796-0.243237v-0.017488l-0.023846-0.211441-0.006359-0.06836-0.025437-0.166928-0.006359-0.074719-0.023847-0.162158-0.006359-0.07472-0.019077-0.154209-0.012719-0.087438-0.017487-0.14944-0.012718-0.087438-0.019078-0.154209-0.012718-0.07472-0.023847-0.179645-0.006359-0.050873c-0.019077-0.154209-0.044514-0.316367-0.063591-0.470576l-0.00477-0.044514-0.025436-0.190774-0.012718-0.06995-0.023847-0.166928-0.006359-0.074719-0.025437-0.14944-0.012718-0.087438-0.023847-0.14785-0.006359-0.087438-0.025437-0.155799-0.012718-0.07472-0.023847-0.179645-0.012718-0.049283-0.031796-0.230519v-0.006359c-0.023847-0.154209-0.047693-0.316367-0.074719-0.470576l-0.00477-0.044514-0.031795-0.186004-0.006359-0.068361-0.036565-0.241647-0.025437-0.155799-0.012718-0.07472-0.023847-0.160568-0.012718-0.07472-0.025437-0.168517-0.012718-0.062001-0.031796-0.186005-0.004769-0.049283-0.07472-0.465807-0.006359-0.044513-0.031796-0.186005-0.011128-0.068361-0.038155-0.241647-0.031796-0.155799-0.011128-0.074719-0.031796-0.160568-0.011128-0.068361-0.025437-0.174876-0.012718-0.055643-0.036565-0.190774-0.006359-0.044514c-0.042924-0.230519-0.079489-0.465806-0.124003-0.696325l-0.006359-0.047693-0.049284-0.249596-0.031795-0.168517-0.012719-0.062002-0.031795-0.166927-0.011129-0.063591-0.031795-0.178056-0.011129-0.050873-0.038155-0.186005-0.006359-0.049283c-0.042924-0.230519-0.092207-0.465806-0.136721-0.702684l-0.006359-0.011129-0.036565-0.211441-0.012719-0.055642-0.036565-0.174876-0.012718-0.055643-0.031796-0.179645-0.011128-0.055643-0.038155-0.181235-0.012718-0.047693-0.036565-0.181236-0.006359-0.055642-0.042924-0.192364-0.00636-0.038155c-0.050873-0.228929-0.100156-0.459447-0.149439-0.694735l-0.006359-0.044514-0.042924-0.186004-0.012719-0.049284-0.038154-0.179645-0.011129-0.057232-0.038155-0.173287-0.012718-0.055642-0.036565-0.174876-0.012718-0.060412-0.042924-0.181235-0.012719-0.042924-0.042924-0.217801-0.006359-0.012718a9.958402 9.958402 0 0 0-0.106515-0.459447l-0.00636-0.036565-0.042924-0.192364-0.012718-0.049283-0.042924-0.181236-0.012718-0.055642-0.036565-0.174876-0.019078-0.060412-0.036565-0.162158-0.012718-0.062001-0.044514-0.179646-0.068361-0.273443-0.166927-0.689966-0.006359-0.031795-0.104926-0.421293-0.012718-0.055642-0.044514-0.174876-0.011128-0.055643-0.050873-0.179645-0.00636-0.042924-0.055642-0.206672-0.006359-0.015898a28.625636 28.625636 0 0 0-0.179646-0.696325v-0.006359l-0.055642-0.2178-0.012718-0.036565-0.049284-0.192364-0.012718-0.044514-0.042924-0.179646-0.019077-0.049283-0.042925-0.181235-0.012718-0.042924-0.055642-0.198723-0.006359-0.025437c-0.087438-0.303649-0.168517-0.613656-0.254366-0.918894v-0.017488l-0.063591-0.206672-0.004769-0.036565-0.055643-0.186005-0.012718-0.042924-0.050873-0.187594-0.011129-0.036565-0.055642-0.198723-0.006359-0.025437-0.063591-0.21621-0.00477-0.006359c-0.063591-0.236878-0.130362-0.461037-0.198723-0.689966v-0.006359l-0.063591-0.22257-0.011129-0.025436-0.055642-0.198723-0.012718-0.031796-0.055643-0.197133-0.006359-0.025437-0.063591-0.205082-0.004769-0.019077-0.068361-0.21621v-0.00636l-0.348163-1.144643-0.006359-0.015898-0.062001-0.206672-0.006359-0.023847-0.07472-0.224159-0.068361-0.217801v-0.006359c-0.124003-0.378368-0.241647-0.756737-0.36565-1.135105l-0.006359-0.012718-0.068361-0.211441-0.079489-0.241647-0.06995-0.211442-0.00636-0.012718c-0.14785-0.446729-0.303649-0.899817-0.453088-1.354495l-0.006359-0.006359-0.07472-0.209852-0.006359-0.019077-0.066771-0.211441-0.006359-0.012718-0.07472-0.209852-0.006359-0.012718a57.779079 57.779079 0 0 0-0.476935-1.341777v-0.006359l-0.082668-0.22257c-0.216211-0.597758-0.44037-1.192337-0.66453-1.790096v-0.006359l-0.079489-0.209851-0.006359-0.006359c-0.224159-0.596169-0.454678-1.185978-0.689966-1.775788a139.937483 139.937483 0 0 0-40.452033-55.772773c-19.741927-16.463794-49.084555-13.805677-65.54199 5.93625-16.462205 19.735568-13.804087 49.084555 5.93784 65.541991a46.520235 46.520235 0 0 1 16.784931 35.793968c0 1.955433-0.117644 3.912456-0.354522 5.856761-0.017488 0.136721-0.031796 0.278212-0.047693 0.414933-0.020667 0.14308-0.044514 0.286161-0.063592 0.429242-3.707374 25.44289-27.336321 43.054508-52.772852 39.347133-22.865851-3.329006-39.832017-22.940571-39.832017-46.048069 0.006359-25.703614-20.816621-46.544082-46.520234-46.5568-25.703614-0.006359-46.544082 20.816621-46.5568 46.520235v0.036565z m0 0" fill="#005EEE" p-id="4054"></path><path d="M372.301779 186.327356c0 102.808097-83.345972 186.14771-186.154069 186.14771C83.339613 372.475066 0 289.135453 0 186.327356S83.339613 0.179645 186.14771 0.179645s186.154069 83.339613 186.154069 186.147711z m0 0" fill="#7D8FAC" p-id="4055"></path><path d="M319.552774 98.38691c-25.722692 0.017488-46.564749 20.883392-46.544081 46.599724a46.744394 46.744394 0 0 0 2.073077 13.724598c15.171301 49.19584-12.406668 101.380472-61.610457 116.551773a93.239193 93.239193 0 0 1-27.323603 4.135026 92.278963 92.278963 0 0 1-54.642437-17.705415c-20.784825-15.114068-49.892165-10.519595-65.006233 10.26523-15.098171 20.760978-10.533903 49.823804 10.201638 64.95854A185.602414 185.602414 0 0 0 121.33861 360.880777l0.006359 0.006359 0.391087 0.143081 0.012718 0.006359 0.384727 0.136721 0.031796 0.011129 0.235288 0.087438 0.012718 0.006359 0.391087 0.14308 0.019077 0.00636c0.124003 0.042924 0.254365 0.092207 0.378369 0.136721l0.031795 0.011128 0.235288 0.081079 0.019078 0.006359c0.130362 0.049283 0.260724 0.093797 0.384727 0.136722l0.025437 0.012718 0.378368 0.130362 0.036565 0.012719 0.230519 0.079489 0.019077 0.012718 0.378368 0.130362 0.031796 0.012718 0.36565 0.124004 0.062002 0.019077 0.205082 0.07472 0.036565 0.012718 0.124003 0.042924 0.019077 0.006359 0.236878 0.079489 0.031796 0.007949c0.116054 0.042924 0.246416 0.085848 0.36565 0.124003l0.062001 0.023847 0.209852 0.068361 0.025436 0.012718 0.124003 0.038155 0.044514 0.011128 0.203493 0.07472 0.050873 0.012718 0.117644 0.044514 0.297289 0.098567 0.243237 0.07472 0.006359 0.006359 0.117644 0.036565 0.049283 0.012718 0.198723 0.068361 0.168517 0.055642 0.062002 0.019078 0.179645 0.055642 0.07472 0.025437 0.179645 0.055642 0.168517 0.055642 0.068361 0.025437 0.166927 0.047693 0.07472 0.025437 0.104926 0.038155 0.087438 0.025436 0.14308 0.047694 0.098567 0.025436 0.087438 0.031796 0.155799 0.042924 0.085848 0.031796 0.22257 0.07472 0.106515 0.031795 0.093797 0.030206 0.111285 0.031796 0.117644 0.036565 0.111285 0.036565 0.087438 0.025436 0.143081 0.042925 0.100156 0.031795 0.087438 0.031796 0.111285 0.030206 0.130362 0.036565 0.087438 0.031795 0.111285 0.031796 0.117644 0.036565 0.111285 0.036565 0.087438 0.025437 0.155799 0.042924 0.079489 0.025436 0.106515 0.031796 0.079489 0.023847 0.155799 0.049283 0.087438 0.025437 0.111285 0.031795 0.111285 0.036565 0.125593 0.031796 0.241647 0.07313 0.074719 0.025436 0.111285 0.031796 0.07472 0.023847 0.162158 0.042924 0.085848 0.025437 0.106516 0.031795 0.111285 0.036565 0.124003 0.031796 0.087438 0.023847 0.136721 0.042924 0.098567 0.025436 0.106515 0.031796 0.087438 0.023847 0.154209 0.042924 0.079489 0.025436 0.119234 0.038155 0.079489 0.017488 0.163748 0.049283 0.066771 0.019077 0.14308 0.038155 0.087438 0.023847 0.124003 0.038155 0.07472 0.017487 0.162158 0.050873 0.079489 0.017488 0.119234 0.031796 0.07313 0.025436 0.162158 0.042924 0.07472 0.025437 0.14308 0.036565 0.07472 0.019077 0.14785 0.042925 0.063591 0.012718 0.173287 0.049283 0.062001 0.019077 0.136721 0.036565 0.062002 0.012719 0.174876 0.049283 0.060412 0.012718 0.149439 0.042924 0.068361 0.019078 0.155799 0.044514 0.062001 0.011128 0.174877 0.050873 0.060411 0.011129 0.136722 0.038155 0.063591 0.019077 0.178056 0.042924 0.057232 0.019077 0.160568 0.042925 0.031796 0.006359 0.186004 0.049283 0.055643 0.012718 0.186004 0.049284 0.038155 0.006359 0.160568 0.042924 0.049284 0.012718 0.187594 0.049283 0.042924 0.012719 0.14944 0.050873 0.049283 0.011128 0.179646 0.044514 0.055642 0.017488 0.181235 0.044514 0.049283 0.006359 0.155799 0.042924 0.055643 0.012718 0.179645 0.049284 0.049283 0.012718 0.155799 0.036565 0.049283 0.012718 0.181236 0.042924 0.062001 0.012718 0.173287 0.044514 0.031795 0.00636 0.173287 0.042924 0.055642 0.012718 0.186005 0.042924 0.038154 0.012718 0.173287 0.042925 0.031796 0.006359 0.198722 0.049283 0.042925 0.006359 0.174876 0.044514 0.030206 0.006359 0.190774 0.047694 0.044513 0.007949 0.192364 0.047693 0.031796 0.007949 0.174876 0.042924 0.042924 0.006359 0.186005 0.042924 0.049283 0.012719 0.179646 0.044514 0.019077 0.004769 0.198723 0.044514 0.049283 0.012718 0.192364 0.042924h0.012718l0.192364 0.049284 0.038155 0.006359 0.190774 0.042924 0.044514 0.006359 0.174876 0.044514 0.030206 0.006359 0.192363 0.042924 0.049284 0.012718 0.192364 0.042925 0.025436 0.006359 0.179646 0.036565 0.044513 0.012718 0.190774 0.044514 0.031796 0.006359 0.187595 0.042924 0.031795 0.006359 0.190774 0.042924 0.044514 0.00636 0.408574 0.087438 0.038155 0.012718 0.198723 0.042924h0.023847l0.187594 0.042924 0.031796 0.006359 0.203492 0.042924 0.031796 0.00636c0.135132 0.031796 0.271853 0.057232 0.408574 0.087438l0.038155 0.006359 0.205082 0.042924h0.017487l0.192364 0.044514 0.031796 0.006359 0.205082 0.042924 0.031796 0.006359c0.135132 0.031796 0.271853 0.055642 0.408574 0.085849l0.044514 0.006359 0.408574 0.081079 0.031796 0.012718 0.205082 0.036565 0.025436 0.006359 0.197133 0.038155 0.019078 0.006359 0.206672 0.036565 0.030206 0.012718 0.205082 0.036565h0.011128l0.198723 0.044514 0.038155 0.006359 0.198723 0.036565 0.031795 0.006359 0.203493 0.036566h0.006359l0.211441 0.044513 0.031795 0.00636c0.135132 0.023847 0.271853 0.047693 0.408575 0.074719l0.044514 0.011129 0.205082 0.038155h0.011128l0.206672 0.036565 0.017488 0.006359 0.205082 0.038155 0.036565 0.004769 0.192363 0.038155 0.019078 0.006359 0.198723 0.031796 0.044514 0.011128 0.203492 0.038155h0.012718l0.211441 0.036565h0.012719l0.211441 0.036565 0.031795 0.006359 0.203493 0.038155h0.006359l0.211441 0.036565 0.031796 0.006359 0.209851 0.038155h0.006359l0.198723 0.036565 0.036565 0.006359 0.206672 0.036565h0.030206l0.192363 0.038155h0.019078l0.205082 0.036565 0.042924 0.006359 0.205082 0.038155h0.006359l0.198723 0.031795 0.042924 0.00477 0.198723 0.036565 0.038155 0.006359 0.21621 0.031795 0.192364 0.031796 0.050873 0.011129 0.403805 0.063591 0.047694 0.004769 0.200312 0.031796 0.031796 0.006359 0.179645 0.031796 0.042925 0.004769 0.198723 0.031796 0.036565 0.006359 0.206671 0.031796h0.00477l0.211441 0.030205 0.031796 0.00636 0.209851 0.030205 0.019077 0.00636 0.192364 0.031795h0.038155l0.205082 0.030206 0.031796 0.006359 0.197133 0.031796h0.012718l0.205082 0.030206 0.042924 0.006359 0.205082 0.031796h0.012718l0.198723 0.030205h0.036565l0.206672 0.031796 0.030206 0.004769 0.186005 0.025437 0.031795 0.006359 0.203493 0.025437 0.038154 0.004769 0.211441 0.031796h0.00636l0.197133 0.031795 0.044514 0.00477 0.205082 0.025436 0.031795 0.006359 0.184415 0.025437 0.031796 0.004769 0.205082 0.025437 0.031796 0.006359 0.421292 0.055642 0.042924 0.006359 0.206672 0.025437 0.023847 0.006359 0.192364 0.023847h0.031795l0.209852 0.025436 0.025436 0.006359 0.429242 0.055643h0.036565l0.211441 0.031796h0.012718l0.198723 0.023846 0.036565 0.006359 0.198723 0.025437 0.042924 0.006359 0.198723 0.017488 0.012718 0.006359 0.206672 0.025436h0.041334l0.422883 0.049284 0.036565 0.006359 0.211441 0.025436 0.019077 0.00477 0.205082 0.019077 0.019078 0.006359 0.205082 0.025437h0.042924l0.422882 0.047693 0.036565 0.007949 0.211441 0.023847h0.017488l0.211441 0.019077 0.012718 0.006359 0.217801 0.019078 0.031795 0.006359 0.434011 0.042924 0.023847 0.006359 0.224159 0.019078 0.217801 0.023846 0.023846 0.00636 0.211441 0.019077 0.031796 0.006359 0.216211 0.019077 0.211441 0.017488 0.044514 0.006359 0.205082 0.019078h0.017487l0.206672 0.019077 0.023847 0.006359 0.211441 0.017488 0.036565 0.006359 0.205082 0.019077h0.006359l0.211441 0.019078 0.042925 0.006359 0.211441 0.017487 0.2178 0.019078h0.031796l0.209851 0.019077h0.025437l0.203492 0.017488 0.025436 0.006359 0.211442 0.012718 0.036565 0.006359 0.211441 0.019078 0.211441 0.012718 0.042924 0.004769 0.198723 0.019078h0.049283l0.181235 0.012718 0.031796 0.006359 0.203492 0.012718 0.038155 0.00636 0.429242 0.031795 0.042924 0.00477 0.203492 0.012718 0.025437 0.006359 0.198722 0.012718h0.031796l0.205082 0.017488h0.042924l0.190774 0.019077h0.027027l0.209851 0.012719 0.038155 0.006359 0.211441 0.012718h0.017487l0.206672 0.017488h0.023847l0.211441 0.012718h0.036565l0.205082 0.012718 0.012719 0.006359 0.2178 0.012718h0.036565l0.211441 0.011129 0.012718 0.006359 0.198723 0.012718h0.042924l0.205082 0.012719 0.036565 0.006359 0.198723 0.006359 0.025437 0.006359 0.211441 0.011128h0.036565l0.211441 0.012719h0.006359l0.211441 0.012718h0.036565l0.211442 0.012718h0.031795l0.190774 0.012719h0.031796l0.211441 0.012718h0.036565l0.429241 0.017487 0.042925 0.00636 0.211441 0.006359h0.025436l0.190774 0.012718h0.038155l0.2178 0.012718h0.025437l0.209851 0.006359h0.012719l0.211441 0.011129h0.042924l0.206672 0.012718h0.042924l0.179645 0.006359h0.042924l0.206672 0.006359 0.041335 0.006359 0.187594 0.00636h0.031796l0.203492 0.006359h0.055642l0.206672 0.006359h0.011129l0.198723 0.006359h0.049283l0.206672 0.004769 0.036565 0.00636 0.179645 0.006359h0.042924l0.206672 0.006359h0.041334c0.14308 0.006359 0.29252 0.012718 0.435601 0.012718l0.036565 0.006359h0.236878l0.205082 0.006359h0.031795l0.203493 0.006359h0.049283l0.206672 0.00636h0.004769l0.206672 0.006359h0.29093l0.186005 0.004769h0.042924l0.206672 0.006359h0.265494l0.205082 0.006359h0.279802l0.190773 0.006359h0.51668l0.205082 0.00636h1.459421c102.808097 0 186.14771-83.339613 186.14771-186.147711v-1.147823c-0.006359-0.063591-0.006359-0.119234-0.006359-0.181235v-0.031796-0.248006-0.198723l-0.006359-0.190774v-0.254365c0-0.06995-0.006359-0.131952-0.006359-0.200313v-0.254365c0-0.062002-0.006359-0.124003-0.006359-0.192364v-0.254365l-0.00636-0.192364v-0.055642l-0.006359-0.162158v-0.036565l-0.006359-0.192364v-0.262314l-0.004769-0.186005v-0.055642l-0.006359-0.160569v-0.038154l-0.006359-0.198723v-0.042924l-0.00636-0.168517v-0.042925c-0.006359-0.063591-0.006359-0.124003-0.006359-0.186004l-0.006359-0.063591v-0.143081l-0.006359-0.060412c0-0.055642 0-0.117644-0.006359-0.181235v-0.066771l-0.006359-0.136721v-0.063592c0-0.062002-0.006359-0.117644-0.006359-0.179645v-0.068361l-0.00636-0.130362-0.004769-0.068361c0-0.062002 0-0.117644-0.006359-0.179645v-0.068361l-0.006359-0.130362v-0.07472l-0.006359-0.166927-0.006359-0.081079-0.00636-0.124003v-0.068361l-0.006359-0.174876-0.006359-0.079489v-0.119234l-0.006359-0.079489c0-0.057232-0.006359-0.111285-0.006359-0.168517l-0.006359-0.079489v-0.119234l-0.00477-0.07472-0.006359-0.174876-0.006359-0.07313-0.006359-0.124003v-0.07472l-0.012718-0.166927v-0.087438c-0.006359-0.038155-0.006359-0.068361-0.006359-0.106516l-0.006359-0.085848-0.00636-0.162158-0.006359-0.085848c0-0.038155 0-0.081079-0.004769-0.111285v-0.082669l-0.012718-0.173286v-0.07472l-0.006359-0.117644-0.00636-0.079489-0.012718-0.168517v-0.087438c-0.006359-0.036565-0.006359-0.068361-0.006359-0.104926l-0.006359-0.087438-0.012718-0.162158-0.00477-0.098566v-0.087438l-0.006359-0.104926c-0.006359-0.049283-0.006359-0.100156-0.012718-0.149439l-0.006359-0.104926-0.006359-0.081079-0.00636-0.111285-0.006359-0.14944-0.006359-0.106515-0.006359-0.079489-0.006359-0.106516-0.004769-0.124003-0.00636-0.130362-0.006359-0.087438-0.006359-0.104926-0.006359-0.055642c-0.006359-0.068361-0.006359-0.14308-0.012718-0.206672l-0.006359-0.060412-0.00636-0.124003v-0.019077l-0.017487-0.241647-0.006359-0.063592-0.006359-0.117644v-0.031795l-0.019078-0.235288-0.006359-0.047694c-0.006359-0.131952-0.019077-0.262314-0.023847-0.392676l-0.006359-0.055642-0.031795-0.403805v-0.031796l-0.012719-0.130362v-0.011129l-0.017487-0.260724-0.006359-0.038155c-0.006359-0.14308-0.019077-0.279802-0.031796-0.422882v-0.011129l-0.036565-0.422882v-0.025437l-0.038155-0.429241v-0.004769l-0.036565-0.434011v-0.012718l-0.038155-0.435601a10.587956 10.587956 0 0 0-0.042924-0.44037c-0.049283-0.58981-0.111285-1.17326-0.166927-1.764659-0.634323-6.209693-1.557987-12.320819-2.794839-18.338149-0.006359-0.047693-0.019077-0.092207-0.025436-0.143081l-0.055643-0.271852-0.006359-0.019078-0.087438-0.410164v-0.012718l-0.085848-0.408574-0.006359-0.019078-0.031796-0.130362v-0.012718l-0.055643-0.254366-0.006359-0.031795c-0.006359-0.036565-0.012718-0.079489-0.023846-0.124003l-0.00636-0.031796-0.050873-0.235288-0.004769-0.031796-0.025437-0.122413-0.012718-0.044514-0.042924-0.2178-0.012718-0.042924-0.025437-0.117644-0.006359-0.042924-0.047693-0.211442-0.007949-0.055642-0.023847-0.111285-0.019077-0.063591-0.038155-0.179646-0.017488-0.06836-0.019077-0.104926-0.019078-0.07472-0.036565-0.168517-0.019077-0.07472-0.023847-0.104925-0.019077-0.079489c-0.012718-0.050873-0.019077-0.095387-0.031796-0.143081l-0.023847-0.100156-0.019077-0.087438-0.049283-0.211441-0.031796-0.136722-0.012718-0.068361-0.031796-0.130362-0.015898-0.06836a5.858351 5.858351 0 0 1-0.038154-0.154209l-0.012719-0.063592-0.038155-0.14785-0.006359-0.036565c-0.011128-0.057232-0.030206-0.119234-0.042924-0.181235l-0.006359-0.042924-0.049283-0.186005c-0.012718-0.063591-0.031796-0.130362-0.042924-0.192363l-0.00636-0.038155a1.896611 1.896611 0 0 1-0.044513-0.179646l-0.00636-0.012718-0.042924-0.198723-0.006359-0.019077-0.098566-0.408574a190.214375 190.214375 0 0 0-3.030127-10.961555c-6.01256-19.474844-24.021624-32.757482-44.409003-32.770201z m0 0" fill="#5E7599" p-id="4056"></path><path d="M367.543558 414.256157c144.392055-144.390466 305.238367-217.644494 359.273507-163.617303v0.006359l100.957589-100.963949c-122.308378-39.421853-328.477817 47.017837-503.134574 221.676184C149.984913 546.011026 63.546812 752.172516 102.970255 874.485663l100.956-100.95759c-54.027191-54.027191 19.226838-214.881451 163.617303-359.271916z m0 0" fill="#FFEA21" p-id="4057"></path><path d="M837.666285 558.622776c0 179.912581-145.843527 325.762467-325.756108 325.762467s-325.762467-145.849887-325.762467-325.762467c0-179.912581 145.849887-325.756108 325.762467-325.756108 179.912581 0 325.756108 145.843527 325.756108 325.756108z m0 0" fill="#FFA300" p-id="4058"></path><path d="M805.113885 580.234288a23.245809 23.245809 0 0 0-19.972446 11.295409 698.967243 698.967243 0 0 1-62.343346 87.779878v0.006359c-0.558014 0.670888-1.117618 1.341777-1.675632 2.006306l-0.006359 0.004769c-0.2178 0.260724-0.446729 0.527808-0.670888 0.794892l-0.006359 0.006359c-0.104926 0.130362-0.2178 0.260724-0.329085 0.391087l-0.00636 0.006359c-0.2178 0.260724-0.434011 0.521449-0.65817 0.777404l-0.031795 0.042924c-0.216211 0.254365-0.434011 0.51509-0.651812 0.769455l-0.017487 0.025437-0.317957 0.372009-0.017487 0.019077c-0.2178 0.260724-0.429241 0.508731-0.651812 0.769455l-0.038154 0.044514c-0.22257 0.254365-0.434011 0.502371-0.651811 0.763096l-0.031796 0.031796c-0.098567 0.117644-0.186005 0.22257-0.29093 0.341803l-0.044514 0.055643c-0.216211 0.248006-0.429241 0.496012-0.639093 0.750377l-0.049283 0.057232-0.305239 0.346573-0.017487 0.025437c-0.106515 0.124003-0.22257 0.260724-0.329086 0.378368l-0.025436 0.031796-0.29729 0.348162-0.044513 0.047694c-0.211441 0.249596-0.429241 0.497602-0.645452 0.747198l-0.049284 0.062001-0.273442 0.310008-0.055643 0.068361c-0.106515 0.117644-0.211441 0.241647-0.317956 0.359291l-0.036565 0.050873-0.279802 0.316367-0.068361 0.079489c-0.104926 0.119234-0.205082 0.238467-0.303649 0.354521l-0.006359 0.00636c-0.111285 0.124003-0.211441 0.236878-0.317956 0.36088l-0.07313 0.07949-0.260725 0.298879-0.055642 0.06836c-0.106515 0.117644-0.211441 0.241647-0.317957 0.360881l-0.042924 0.047694c-0.087438 0.106515-0.179645 0.206672-0.273443 0.311597l-0.074719 0.093797-0.267084 0.29729-0.047694 0.063591-0.311597 0.346573-0.07472 0.087438c-0.079489 0.092207-0.168517 0.190774-0.248006 0.286161l-0.07472 0.079489-0.311597 0.354522-0.036565 0.042924-0.273443 0.305238-0.098567 0.111285c-0.081079 0.093797-0.168517 0.192364-0.249596 0.29252l-0.055642 0.055643-0.310008 0.352931-0.079489 0.087439-0.230518 0.267083c-0.031796 0.031796-0.068361 0.07472-0.100157 0.111285l-0.297289 0.335444-0.057232 0.063592c-0.085848 0.098567-0.166927 0.184415-0.254366 0.284571l-0.104925 0.124003c-0.07472 0.079489-0.14944 0.162158-0.22257 0.248006l-0.095387 0.106515-0.297289 0.333855-0.087439 0.095387c-0.07313 0.085848-0.14785 0.166927-0.222569 0.248006l-0.111285 0.124003-0.267084 0.303649-0.057232 0.063591c-0.092207 0.104926-0.186005 0.209851-0.286161 0.314777l-0.104925 0.119234c-0.07472 0.079489-0.136721 0.154209-0.209852 0.235288l-0.106515 0.117644-0.286161 0.317956-0.117644 0.135132-0.198723 0.2178-0.124003 0.136722-0.205082 0.230518-0.154209 0.173286a8.50534 8.50534 0 0 1-0.230519 0.254366l-0.130362 0.14308c-0.063591 0.07472-0.124003 0.136721-0.186005 0.205082l-0.130362 0.14944-0.279802 0.303649-0.130362 0.14308a2.559551 2.559551 0 0 1-0.174876 0.192364 1.915689 1.915689 0 0 1-0.14785 0.166927l-0.168517 0.187594c-0.055642 0.062002-0.14785 0.166927-0.209851 0.228929-0.063591 0.068361-0.125593 0.14308-0.193954 0.211441l-0.160568 0.179646c-0.055642 0.063591-0.100156 0.111285-0.155799 0.168517l-0.14308 0.160568-0.205082 0.22257-0.216211 0.238467-0.162157 0.179646c-0.062002 0.062002-0.098567 0.104926-0.154209 0.166927-0.050873 0.049283-0.106515 0.117644-0.155799 0.168517-0.063591 0.062002-0.111285 0.124003-0.168517 0.186004a9.89481 9.89481 0 0 0-0.248006 0.273443l-0.155799 0.173287-0.154209 0.162157c-0.055642 0.062002-0.106515 0.111285-0.162158 0.179646l-0.174876 0.186005-0.235288 0.260724c-0.055642 0.055642-0.104926 0.111285-0.154209 0.168517-0.063591 0.062002-0.111285 0.124003-0.168517 0.186005a3.246337 3.246337 0 0 0-0.143081 0.154209c-0.062002 0.063591-0.104926 0.111285-0.160568 0.174876l-0.267083 0.286161c-0.063591 0.066771-0.100156 0.111285-0.162158 0.173286-0.055642 0.062002-0.092207 0.104926-0.14785 0.160568-0.063591 0.068361-0.100156 0.111285-0.155799 0.174876l-0.162158 0.174876c-0.085848 0.098567-0.166927 0.178056-0.254365 0.278212l-0.166927 0.174877-0.162158 0.179645c-0.049283 0.047693-0.092207 0.092207-0.136721 0.14785l-0.174876 0.181235-0.128773 0.136722-0.317957 0.340213-0.111284 0.125593-0.190774 0.209851c-0.038155 0.038155-0.063591 0.068361-0.106516 0.106516-0.111285 0.130362-0.230519 0.254365-0.354521 0.378368l-0.092208 0.104926c-0.07472 0.07472-0.111285 0.119234-0.187594 0.198723-0.042924 0.044514-0.079489 0.081079-0.117644 0.125593-0.07472 0.079489-0.117644 0.130362-0.190774 0.209851l-0.038155 0.038155-0.422882 0.453088-0.087438 0.087438-0.198723 0.209852-0.098567 0.111284c-0.14944 0.155799-0.286161 0.305238-0.4356 0.467397l-0.011129 0.006359-0.211441 0.228929-0.087438 0.087438c-0.07472 0.079489-0.130362 0.14308-0.211441 0.222569l-0.047694 0.057232c-0.138311 0.14308-0.286161 0.303649-0.424472 0.44514l-0.068361 0.076309-0.21621 0.22257-0.068361 0.07472c-0.243237 0.254365-0.453088 0.484884-0.696325 0.73289l-0.062001 0.068361-0.228929 0.243236-0.031796 0.031796c-0.14944 0.154209-0.317957 0.333854-0.465806 0.489653l-0.031796 0.031796c-0.07313 0.079489-0.158978 0.166927-0.235288 0.246416l-0.042924 0.044514-0.726531 0.763096-0.042924 0.044514-0.236878 0.248006-0.025436 0.023847-0.483294 0.508731-0.019078 0.019077-0.235288 0.243237-0.050873 0.055642-0.737659 0.763096-0.025437 0.031796c-0.335444 0.348163-0.683607 0.707454-1.017461 1.049257l-0.044514 0.042924-1.02541 1.061975c-0.260724 0.267084-0.527808 0.540526-0.782173 0.80761h-0.006359c-0.608887 0.627964-1.224133 1.255929-1.831431 1.875944l-0.012718 0.012718-1.049257 1.068334a699.968807 699.968807 0 0 1-176.043048 129.945696c-11.389207 5.948969-15.805624 20.002652-9.856656 31.391859 5.944199 11.382847 19.978805 15.799265 31.366422 9.874143a746.533555 746.533555 0 0 0 296.297426-278.646064c6.613498-11.023556 3.036486-25.318887-7.98707-31.932384a23.296682 23.296682 0 0 0-11.940862-3.309929z m0 0" fill="#F98B00" p-id="4059"></path><path d="M754.743196 346.846171c-39.124564 0.012718-74.067997 24.479481-87.457151 61.243217a507.651148 507.651148 0 0 1-9.45762 24.034342c-0.651811 1.545269-1.3227 3.111206-1.987229 4.643756l-0.00636 0.012719-0.149439 0.329085-0.011129 0.038155-0.136721 0.316366-0.025437 0.049284-0.130362 0.298879-0.031795 0.068361-0.128773 0.303648-0.019077 0.042924-0.143081 0.317957-0.012718 0.036565-0.14944 0.329085v0.012718c-0.047693 0.111285-0.104926 0.228929-0.154209 0.341804l-0.012718 0.031795c-0.416523 0.937972-0.820328 1.855277-1.241621 2.78689l-0.019077 0.038155c-0.042924 0.111285-0.087438 0.198723-0.136721 0.310008l-0.025437 0.049283c-0.036565 0.093797-0.079489 0.192364-0.124003 0.286161l-0.036565 0.079489-0.124003 0.279802-0.038155 0.081079-0.117644 0.260724-0.049283 0.111285-0.117644 0.254366-0.044514 0.106515-0.117644 0.254365-0.042924 0.106516c-0.044514 0.085848-0.081079 0.173286-0.119234 0.260724l-0.042924 0.092208c-0.042924 0.087438-0.079489 0.174876-0.124003 0.260724l-0.042924 0.106516c-0.044514 0.085848-0.081079 0.174876-0.119234 0.260724l-0.042924 0.087438-0.117644 0.267084-0.049283 0.092207c-0.044514 0.100156-0.07472 0.179645-0.125593 0.273443l-0.030206 0.07472-0.130362 0.279801-0.031796 0.07313c-0.254365 0.553245-0.508731 1.106489-0.769455 1.658144l-0.019077 0.050873c-0.036565 0.079489-0.079489 0.166927-0.117644 0.254366-0.012718 0.023847-0.036565 0.079489-0.055643 0.111285-0.031796 0.07472-0.068361 0.14944-0.104925 0.230518-0.019077 0.042924-0.044514 0.085848-0.063592 0.130362l-0.098566 0.211441-0.068361 0.154209-0.100156 0.211442c-0.023847 0.042924-0.047693 0.104926-0.07313 0.149439l-0.093797 0.205082c-0.019077 0.047693-0.055642 0.111285-0.07472 0.154209l-0.098567 0.211441-0.068361 0.14944-0.100156 0.205082-0.07472 0.160568-0.098566 0.206672c-0.019077 0.042924-0.049283 0.111285-0.07472 0.154209l-0.087438 0.192364-0.085848 0.179645c-0.031796 0.063591-0.057232 0.124003-0.087438 0.187595-0.025437 0.062002-0.063591 0.130362-0.087439 0.186004l-0.079489 0.166927c-0.025437 0.055642-0.063591 0.136721-0.095387 0.192364l-0.079489 0.174876c-0.031796 0.07313-0.055642 0.117644-0.093797 0.190774l-0.07313 0.162158c-0.038155 0.07472-0.063591 0.130362-0.093797 0.198723l-0.079489 0.168517c-0.044514 0.085848-0.087438 0.179645-0.131952 0.267084l-0.036565 0.085848c-0.055642 0.119234-0.119234 0.243237-0.174877 0.360881l-0.062001 0.136721c-0.036565 0.068361-0.079489 0.160568-0.111285 0.228929a0.526218 0.526218 0 0 0-0.049283 0.106515 4.960123 4.960123 0 0 0-0.124003 0.260725l-0.063592 0.117644a4.494317 4.494317 0 0 1-0.117644 0.248006l-0.062001 0.125593c-0.031796 0.07313-0.068361 0.154209-0.104926 0.222569l-0.07472 0.162158c-0.031796 0.055642-0.07472 0.14785-0.100156 0.205082l-0.07313 0.154209c-0.038155 0.07472-0.063591 0.130362-0.100156 0.198723l-0.07949 0.168517c-0.031796 0.07472-0.063591 0.124003-0.095386 0.198723l-0.173287 0.346573-0.085848 0.181235-0.093797 0.186005-0.07472 0.166927-0.104926 0.206672c-0.019077 0.042924-0.049283 0.098567-0.068361 0.14785l-0.117643 0.230518a1.157362 1.157362 0 0 1-0.063592 0.124003c-0.042924 0.085848-0.066771 0.14308-0.111285 0.235288l-0.062001 0.130362-0.124003 0.248007-0.049284 0.106515-0.14308 0.29093-0.038155 0.068361c-0.297289 0.608887-0.596169 1.211415-0.899817 1.820302l-0.031796 0.062001-0.14785 0.29252-0.044514 0.092208c-0.042924 0.087438-0.085848 0.179645-0.130362 0.267083a0.740839 0.740839 0 0 0-0.047693 0.100157l-0.131952 0.260724-0.055643 0.104926-0.124003 0.248006-0.063591 0.119234-0.116054 0.241647-0.063592 0.124003-0.124003 0.241647-0.055642 0.106515a3.403726 3.403726 0 0 1-0.130362 0.260725l-0.049284 0.098566-0.136721 0.273443a0.95069 0.95069 0 0 0-0.042924 0.081079l-0.181235 0.360881a7.821733 7.821733 0 0 0-0.160568 0.322726l-0.019078 0.023847c-0.062002 0.130362-0.111285 0.230519-0.179645 0.36088-0.36565 0.720172-0.758327 1.472139-1.123977 2.192311l-0.006359 0.006359c-0.055642 0.117644-0.124003 0.241647-0.179646 0.359291l-0.006359 0.00636c-0.063591 0.111285-0.119234 0.230519-0.181235 0.348162l-0.017488 0.036565c-0.055642 0.100156-0.111285 0.2178-0.162158 0.317957l-0.031795 0.055642c-0.055642 0.104926-0.104926 0.198723-0.154209 0.29729l-0.036565 0.06836-0.155799 0.305239-0.025436 0.047693c-0.049283 0.100156-0.111285 0.213031-0.166928 0.311598l-0.019077 0.044514-0.174876 0.329085-0.011129 0.023846c-0.063591 0.117644-0.117644 0.230519-0.179645 0.341804l-0.006359 0.019077a513.911714 513.911714 0 0 1-252.950399 233.928643c-47.240407 20.255427-69.117413 74.978943-48.854036 122.21935 20.250658 47.221329 74.924891 69.099925 122.158938 48.885832C637.676333 798.866037 775.820541 653.02251 842.187629 471.804717c17.575053-48.345306-7.371825-101.782687-55.717131-119.35774a93.193089 93.193089 0 0 0-31.727302-5.600806z m0 0" fill="#F98B00" p-id="4060"></path><path d="M653.078152 259.786466c-25.357041-4.017382-49.171993 13.277869-53.195734 38.631731 0 0.031796-0.012718 0.06995-0.012718 0.100156a417.023969 417.023969 0 0 1-89.728951 199.791229c-0.130362 0.162158-0.267084 0.322726-0.397446 0.484884h-0.006359c-0.192364 0.241647-0.391087 0.484884-0.58981 0.726531l-0.006359 0.006359c-1.001563 1.205056-2.006306 2.410111-3.018998 3.608808l-0.006359 0.011128c-0.135132 0.155799-0.271853 0.317957-0.402216 0.472166-0.677248 0.801251-1.360854 1.589783-2.044461 2.384675v0.006359c-0.22257 0.254365-0.44037 0.508731-0.664529 0.769455-16.835804 19.419201-14.73729 48.812702 4.68986 65.646916 19.423971 16.829445 48.811112 14.730931 65.646916-4.688271l0.047694-0.062001a510.239315 510.239315 0 0 0 118.422947-254.688032c3.998305-25.380888-13.34623-49.203789-38.733477-53.202093z m0 0" fill="#FFD700" p-id="4061"></path><path d="M324.807007 630.671749a46.688752 46.688752 0 0 0-13.985322 2.162105c-0.050873 0.011128-0.119234 0.030206-0.174876 0.047693-0.047693 0.019077-0.104926 0.031796-0.160568 0.050873l-0.155799 0.049284-0.166927 0.049283c-0.050873 0.019077-0.111285 0.038155-0.162158 0.050873l-0.174876 0.055642c-0.036565 0.006359-0.104926 0.031796-0.143081 0.042924-0.060412 0.019077-0.116054 0.038155-0.178055 0.055643-0.057232 0.019077-0.093797 0.025437-0.143081 0.044514-0.063591 0.023847-0.124003 0.036565-0.186005 0.055642a0.715402 0.715402 0 0 1-0.106515 0.036565l-0.769455 0.230519-0.07472 0.023846c-0.068361 0.025437-0.14944 0.044514-0.22257 0.068361l-0.095387 0.031796c-0.07313 0.019077-0.14308 0.042924-0.21621 0.063591l-0.111285 0.030206c-0.07472 0.023847-0.14308 0.042924-0.211441 0.068361-0.025437 0.004769-0.087438 0.023847-0.111285 0.031795-0.068361 0.023847-0.136721 0.041334-0.211441 0.066771l-0.106515 0.031796-0.22257 0.068361-0.081079 0.017487-0.241647 0.07472-0.050873 0.012718c-0.391087 0.117644-0.769455 0.228929-1.154183 0.348163l-0.049283 0.012718-0.262314 0.07313-0.055643 0.019077-0.248006 0.07472-0.079489 0.025437c-0.082669 0.023847-0.162158 0.042924-0.243237 0.068361a0.782173 0.782173 0 0 0-0.063591 0.017487c-0.085848 0.025437-0.178056 0.050873-0.265494 0.081079l-0.038155 0.006359-1.793275 0.521449-0.057232 0.019077-0.260725 0.07472-0.047693 0.012719a15.344587 15.344587 0 0 0-0.268674 0.07313l-0.049283 0.012718c-0.093797 0.031796-0.186005 0.055642-0.279802 0.081079l-0.019077 0.006359-0.29093 0.087438-0.012719 0.004769c-0.615246 0.174876-1.230492 0.341803-1.837789 0.51668l-0.031796 0.006359c-0.092207 0.023847-0.190774 0.055642-0.286161 0.079489l-0.023846 0.006359c-0.100156 0.025437-0.198723 0.055642-0.29252 0.081079l-0.023847 0.006359c-0.715402 0.198723-1.429215 0.397446-2.149387 0.58981l-0.025437 0.006359c-0.098567 0.031796-0.190774 0.055642-0.286161 0.079489l-0.030205 0.014308a424.491181 424.491181 0 0 1-29.983311 6.929865c-25.242577 4.83771-41.785861 29.218625-36.94815 54.462791 4.831351 25.237808 29.218625 41.78745 54.456432 36.949741l0.092208-0.019078a511.903818 511.903818 0 0 0 55.208399-13.872448c24.535123-7.651626 38.229516-33.751096 30.57153-58.294168a46.548851 46.548851 0 0 0-44.407413-32.684352z m0 0" fill="#FFA300" p-id="4062"></path><path d="M554.716679 238.777482c-23.1695 0.038155-42.781065 17.102887-46.024223 40.043458a325.516051 325.516051 0 0 1-126.851978 214.496723v0.006359c-0.260724 0.190774-0.51668 0.384728-0.777404 0.577092l-0.017487 0.012718c-0.063591 0.042924-0.125593 0.092207-0.187595 0.136721v0.006359c-0.322726 0.235288-0.651811 0.483294-0.974537 0.726531h-0.006359c-0.260724 0.198723-0.51509 0.384728-0.782173 0.577092l-0.006359 0.006359c-0.333854 0.248006-0.651811 0.476935-0.987256 0.720171l-0.980896 0.720172-0.012718 0.006359-0.58981 0.429242h-0.006359c-0.055642 0.042924-0.117644 0.092207-0.179645 0.135131l-0.025437 0.012719-0.179645 0.130362-0.00636 0.006359c-0.192364 0.14308-0.397446 0.286161-0.58345 0.422882l-0.031796 0.017488-0.166927 0.119234-0.025436 0.017487c-0.055642 0.044514-0.117644 0.087438-0.166928 0.125593l-0.025436 0.017488-0.384728 0.273442-0.031795 0.025437c-0.047693 0.031796-0.111285 0.079489-0.160568 0.111285l-0.031796 0.025436-0.160568 0.111285-0.038155 0.025437-0.174876 0.124003-0.011129 0.006359-0.391086 0.278212-0.019078 0.012718-0.174876 0.117644-0.030206 0.025437-0.166927 0.111285-0.031796 0.025436-0.160568 0.111285-0.031795 0.025436c-0.130362 0.093797-0.254365 0.174876-0.384728 0.267084l-0.031796 0.025437c-0.055642 0.036565-0.111285 0.079489-0.166927 0.117643l-0.025436 0.019078-0.173287 0.117644-0.025436 0.017487c-0.130362 0.093797-0.254365 0.181235-0.391087 0.267084l-0.023847 0.019077c-0.050873 0.038155-0.100156 0.07472-0.155798 0.111285l-0.055643 0.038155-0.130362 0.092207-0.068361 0.050874-0.186004 0.124003c-0.124003 0.087438-0.254365 0.174876-0.379958 0.260724l-0.042925 0.031796-0.136721 0.092207-0.07472 0.049283-0.117644 0.081079-0.06836 0.049284-0.186005 0.124003-0.186005 0.130362-0.050873 0.038155-0.135131 0.087438-0.07472 0.047693-0.119234 0.082669-0.062001 0.042924-0.130363 0.093797-0.062001 0.042925-0.136721 0.092207-0.047694 0.031796-0.181235 0.124003-0.07472 0.049283-0.124003 0.081079-0.068361 0.049283-0.106515 0.07472-0.092208 0.063591-0.087438 0.060412-0.104925 0.068361-0.354522 0.236877-0.087438 0.055643-0.098567 0.068361-0.093797 0.062001-0.092207 0.068361-0.087438 0.055642-0.104926 0.068361-0.087438 0.063591-0.162158 0.104926-0.042924 0.031796-0.162158 0.104925-0.068361 0.042924-0.124003 0.087438-0.07472 0.047694-0.104925 0.06995-0.087438 0.062002-0.098567 0.068361-0.087438 0.055642-0.174876 0.117644-0.085849 0.055642-0.098566 0.068361-0.187594 0.124003-0.098567 0.063591-0.087438 0.062002-0.098567 0.062002-0.087438 0.062001-0.228929 0.14785-0.038154 0.025436-0.124003 0.07949-0.055643 0.038154-0.117644 0.07472-0.081079 0.055643-0.100156 0.063591-0.186005 0.122413-0.098566 0.068361-0.14944 0.095387-0.111285 0.07313-0.100156 0.062002-0.087438 0.055642-0.098567 0.068361-0.087438 0.063591-0.098566 0.060412-0.087438 0.055642-0.100157 0.068361-0.07313 0.050873-0.211441 0.136721-0.07472 0.042924-0.104925 0.07472-0.081079 0.049283-0.100157 0.068361-0.092207 0.055642-0.100156 0.068361-0.068361 0.042924-0.397446 0.254366-0.07472 0.050873-0.117644 0.074719-0.06836 0.042925-0.117644 0.074719-0.22257 0.14944-0.4356 0.273443-0.063592 0.042924-0.184415 0.111285-0.119233 0.081079-0.068361 0.042924-0.124003 0.07472-0.036565 0.025436c-0.093797 0.062002-0.192364 0.124003-0.286161 0.179646l-0.019078 0.019077-0.124003 0.079489-0.06836 0.038155-0.124003 0.079489-0.055643 0.031796-0.130362 0.081079-0.042924 0.031795c-0.14944 0.092207-0.305238 0.190774-0.453088 0.286161l-0.031796 0.017488-0.130362 0.079489-0.063592 0.044514-0.122413 0.07472-0.055642 0.038155-0.130363 0.079489-0.050873 0.031796-0.472165 0.297289-0.14785 0.093797-0.044514 0.025437-0.14308 0.085848-0.030206 0.025437c-0.211441 0.130362-0.434011 0.267084-0.639093 0.397445l-0.038155 0.019078-0.14308 0.092207-0.036565 0.019078-0.14944 0.093797-0.023847 0.017487-0.484884 0.29252-0.019077 0.012719-0.136721 0.085848-0.049284 0.031796-0.130362 0.074719-0.055642 0.036566-0.136722 0.087438-0.025436 0.012718c-0.166927 0.098567-0.333854 0.205082-0.502372 0.303648l-0.162158 0.100157-0.017487 0.004769-0.162158 0.100156-0.012718 0.012719-0.850534 0.50873-0.019078 0.012719-0.154209 0.093797-0.025436 0.011128c-0.22257 0.136721-0.434011 0.267084-0.66453 0.403805l-0.019077 0.012718-0.160568 0.093798-0.019077 0.011128c-0.286161 0.174876-0.559604 0.335444-0.850534 0.508731l-0.012719 0.007949-0.166927 0.098566-0.006359 0.006359c-0.279802 0.168517-0.58504 0.341803-0.863252 0.508731l-0.006359 0.006359a323.592413 323.592413 0 0 1-118.451564 41.515598c-25.436531 3.694656-43.067226 27.298167-39.378929 52.734697 3.688297 25.431761 27.288628 43.054508 52.71721 39.378929C429.098372 621.171204 575.000722 474.94136 600.858545 291.830135c3.570653-25.473096-14.177686-49.022553-39.650782-52.599565a47.28969 47.28969 0 0 0-6.489495-0.453088z m0 0" fill="#FFBE00" p-id="4063"></path><path d="M405.245266 339.518861c-22.840415-22.842004-66.534015-16.190352-97.58566 14.859703-31.048465 31.050055-37.706477 74.745245-14.859703 97.592019 22.845184 22.840415 66.534015 16.188762 97.592019-14.861293 31.048465-31.050055 37.700118-74.743655 14.853344-97.592019z m0 0" fill="#FFBE00" p-id="4064"></path><path d="M827.774654 149.681264L726.817065 250.645213c54.027191 54.03355-19.220478 214.875092-163.610944 359.271916-144.392055 144.392055-305.244726 217.639725-359.279866 163.610944L102.970255 874.487253c7.265309 22.549484 18.306353 42.577573 34.402908 58.674127 103.423343 103.428113 354.957245 19.579769 561.808701-187.265328 206.846687-206.853046 290.688671-458.378999 187.265328-561.808701-16.096554-16.096554-36.124643-27.137599-58.672538-34.402907z m0 0" fill="#FFEA21" p-id="4065"></path><path d="M762.865398 186.80588h-2.63904l-0.092208 0.006359h-0.254365l-0.087438 0.00636h-0.248006l-0.100157 0.006359h-0.248006l-0.100156 0.006359h-0.235288l-0.117644 0.004769h-0.230518l-0.117644 0.006359h-0.055643l-0.155799 0.006359h-0.186004a961.02392 961.02392 0 0 0-0.696325 0.019078h-0.011129l-0.335444 0.006359h-0.012718l-0.335444 0.012718h-0.186005l-0.162158 0.006359h-0.023847l-0.155798 0.00636h-0.00636l-0.162157 0.004769h-0.031796l-0.141491 0.006359h-0.031796l-0.147849 0.006359h-0.192364l-0.155799 0.006359h-0.025436l-0.154209 0.006359h-0.019078l-0.155798 0.00636h-0.011129l-0.168517 0.006359h-0.006359l-0.160568 0.006359h-0.025437l-0.149439 0.006359h-0.023847l-0.155799 0.006359h-0.012718l-0.348163 0.011129c-8.103125 0.311597-16.400203 1.02541-24.902363 2.136668l-0.017488 0.006359-0.168517 0.019078-0.036565 0.006359-0.136721 0.017487-0.068361 0.00636-0.117644 0.019077-0.063591 0.006359-0.117644 0.019077-0.07472 0.00636-0.104925 0.011128-0.087439 0.012718-0.092207 0.012719-0.100156 0.012718-0.079489 0.012718-0.100157 0.011129-0.07472 0.012718-0.117644 0.012718-0.063591 0.012718-0.116054 0.019078-0.063591 0.004769-0.302059 0.044514-0.057232 0.006359-0.136722 0.017488-0.036565 0.006359-0.149439 0.019077h-0.019078c-3.271774 0.461037-6.576933 0.974537-9.904349 1.546859-12.656264 2.209799-21.128218 14.269894-18.910471 26.926158 2.209799 12.638776 14.233329 21.109141 26.876875 18.923189a228.89221 228.89221 0 0 1 38.409161-3.508652c12.850217-0.012718 23.258528-10.440106 23.245809-23.295092-0.006359-12.823191-10.40831-23.218783-23.23945-23.231502z m96.363116 123.891802a23.279195 23.279195 0 0 0-23.083651 20.567025 332.161344 332.161344 0 0 1-15.263508 65.510194c-30.889487 92.67323-97.480734 193.282657-187.495847 283.304129-112.38972 112.39131-249.950478 192.077601-350.440671 203.026438-12.781857 1.378342-22.015317 12.848627-20.643334 25.628894 1.378342 12.775497 12.854987 22.015317 25.628894 20.635385 0.019077 0 0.031796 0 0.050873-0.004769 102.671376-11.177765 233.845974-81.929475 349.310336-188.519667l0.019077-0.012718c0.980896-0.906176 1.944305-1.794865 2.918842-2.707401l0.012718-0.012718c0.489653-0.453088 0.95546-0.887099 1.446703-1.348136l0.019077-0.017488 0.346573-0.322726 0.019077-0.019077 0.348163-0.322726 0.017488-0.025437c0.472166-0.44037 0.963409-0.899817 1.441933-1.341777l0.017487-0.017487c0.119234-0.119234 0.230519-0.2178 0.349753-0.335444l0.011128-0.00636 0.341804-0.322726 0.042924-0.038154 0.335444-0.316367 0.019077-0.019078 0.348163-0.329085 0.011128-0.006359 0.354522-0.333854 0.006359-0.006359 0.341804-0.324316 0.031795-0.031796 0.333855-0.314777 0.031795-0.031796 0.333855-0.316366 0.031795-0.025437 0.348163-0.329085 0.006359-0.006359c0.359291-0.346573 0.715402-0.683607 1.074694-1.023821l0.012718-0.012718 0.340213-0.322726 0.031796-0.031795 0.329085-0.310008 0.042924-0.042924 0.329085-0.311598 0.038155-0.036565c0.111285-0.104926 0.216211-0.211441 0.329085-0.317956l0.031796-0.023847c0.22257-0.2178 0.457858-0.446729 0.688376-0.66453l0.025437-0.019077c0.117644-0.117644 0.228929-0.22257 0.346572-0.333854l0.012719-0.012719 0.341803-0.329085 0.031796-0.025436c0.104926-0.098567 0.22257-0.2178 0.329085-0.322726l0.042924-0.038155c0.104926-0.098567 0.211441-0.203492 0.317957-0.302059l0.047693-0.050873c0.360881-0.341803 0.696325-0.664529 1.049257-1.006333l0.012718-0.012718c0.111285-0.111285 0.2178-0.211441 0.335444-0.322726l0.044514-0.036565 0.333855-0.329085 0.012718-0.012718c0.119234-0.111285 0.230519-0.2178 0.349752-0.335445l0.015898-0.019077 0.349753-0.333854 0.017487-0.019078c0.100156-0.100156 0.22257-0.2178 0.329085-0.317957l0.038155-0.036565 0.310008-0.305238 0.042924-0.036565 0.324316-0.317957 0.042924-0.042924 0.317956-0.303648 0.047694-0.049284 0.317957-0.305238 0.047693-0.055642c0.119234-0.104926 0.213031-0.198723 0.324316-0.310008l0.025436-0.025437c0.235288-0.22257 0.470576-0.459447 0.699505-0.683606l0.007949-0.00477c0.111285-0.106515 0.211441-0.206672 0.322726-0.317956l0.055642-0.047694 0.310008-0.305238 0.057232-0.049283c0.098567-0.106515 0.203492-0.211441 0.310008-0.311598l0.049283-0.042924 0.322726-0.317957 0.038155-0.036565 0.322726-0.322726 0.031796-0.031795c0.228929-0.216211 0.453088-0.44037 0.675657-0.656581l0.365651-0.36565 0.031795-0.020667c0.111285-0.111285 0.198723-0.205082 0.310008-0.316367l0.068361-0.062002c0.100156-0.093797 0.2178-0.211441 0.311597-0.310007l0.036565-0.031796 0.360881-0.359291 0.670888-0.65817 0.031796-0.038155c0.116054-0.111285 0.209851-0.205082 0.321136-0.317957l0.044514-0.041334c0.104926-0.106515 0.209851-0.206672 0.316367-0.311597l0.049283-0.049284c0.106515-0.104926 0.211441-0.2178 0.317957-0.317956l0.036565-0.036565c0.104926-0.104926 0.216211-0.209851 0.316367-0.316367l0.055642-0.055643c0.100156-0.100156 0.2178-0.211441 0.310008-0.310007l0.050873-0.044514 0.29093-0.290931 0.050873-0.049283c0.104926-0.100156 0.203492-0.206672 0.310008-0.305238l0.049283-0.049283c0.100156-0.100156 0.205082-0.211441 0.305239-0.305239l0.062001-0.062001 0.29729-0.29729 0.06836-0.068361 0.303649-0.298879 0.050873-0.055642c0.104926-0.098567 0.209851-0.205082 0.316367-0.310008l0.036565-0.038155 0.329085-0.333854c95.027699-95.027699 165.604532-202.101184 198.735613-301.488068l0.100157-0.286161 0.031795-0.098567 0.060412-0.192364 0.038155-0.106515c0.017488-0.062002 0.042924-0.124003 0.062001-0.190774l0.031796-0.100156 0.07313-0.22416 0.019077-0.062001 0.092208-0.286161 0.031795-0.079489 0.068361-0.211442 0.031796-0.100156c0.023847-0.068361 0.042924-0.130362 0.068361-0.198723l0.030205-0.092207 0.068361-0.2178 0.025437-0.068361c0.062002-0.192364 0.124003-0.391087 0.190774-0.58981l0.019077-0.049283 0.07472-0.236878c0.006359-0.031796 0.019077-0.055642 0.025436-0.079489 0.025437-0.07631 0.042924-0.14944 0.07472-0.2178l0.019078-0.081079 0.085848-0.260725 0.006359-0.025436 0.100156-0.29729 0.006359-0.025436a4.451393 4.451393 0 0 0 0.085849-0.267084l0.025436-0.06836c0.019077-0.07472 0.042924-0.14944 0.068361-0.22257l0.023847-0.081079 0.074719-0.230518 0.019078-0.055643c0.068361-0.198723 0.130362-0.397446 0.192364-0.596169l0.006359-0.031795 0.087438-0.260725 0.017487-0.062001c0.025437-0.079489 0.057232-0.160568 0.081079-0.241647l0.012719-0.042924c0.093797-0.305238 0.186005-0.596169 0.286161-0.895048l0.012718-0.049284c0.023847-0.079489 0.047693-0.168517 0.079489-0.248006l0.012718-0.057232 0.087438-0.265494 0.00636-0.019077c0.062002-0.206672 0.124003-0.410164 0.190773-0.615246 0.031796-0.093797 0.057232-0.192364 0.089028-0.29252l0.011129-0.036565c0.031796-0.087438 0.055642-0.174876 0.087438-0.260725l0.006359-0.036565 0.279802-0.901407 0.006359-0.023847c0.031796-0.095387 0.055642-0.187594 0.085848-0.279801l0.006359-0.025437c0.124003-0.403805 0.248006-0.801251 0.365651-1.205056l0.007948-0.017487c0.154209-0.508731 0.310008-1.012692 0.459448-1.521423l0.006359-0.006359c3.327416-11.117354 6.104767-21.92311 8.314566-32.429986 0.063591-0.29093 0.117644-0.577091 0.179645-0.863253v-0.006359l0.063592-0.273443v-0.017487c0.079489-0.379958 0.154209-0.751967 0.228928-1.123977l0.012719-0.044514 0.047693-0.241647 0.007949-0.036565 0.055643-0.273443 0.111284-0.559603 0.006359-0.036565 0.049284-0.230519 0.006359-0.062001c0.019077-0.07472 0.031796-0.14944 0.044514-0.22257l0.012718-0.050873c0.036565-0.179645 0.07313-0.359291 0.104926-0.540526l0.012718-0.055643c0.012718-0.07472 0.031796-0.14308 0.042924-0.21621l0.012718-0.068361c0.012718-0.068361 0.031796-0.136721 0.042925-0.206672l0.012718-0.066771 0.042924-0.222569 0.006359-0.044514 0.055643-0.273443 0.006359-0.038155c0.012718-0.07313 0.031796-0.14785 0.044514-0.222569l0.017487-0.093798 0.031796-0.166927 0.019077-0.106515 0.031796-0.154209 0.023847-0.111285 0.023846-0.14944 0.038155-0.187594 0.031796-0.173286 0.017488-0.117644c0.012718-0.044514 0.019077-0.093797 0.031795-0.136722l0.023847-0.130362 0.019077-0.130362 0.031796-0.136721 0.017488-0.111285c0.012718-0.050873 0.019077-0.100156 0.025436-0.14944l0.019078-0.100156c0.023847-0.098567 0.036565-0.186005 0.055642-0.290931l0.049283-0.249596 0.019078-0.098566 0.049283-0.248006c0.006359-0.055642 0.019077-0.111285 0.031796-0.168517l0.004769-0.036565 0.111285-0.634324 0.007949-0.047693 0.036565-0.193954 0.006359-0.036565 0.036565-0.211441v-0.012718a305.265393 305.265393 0 0 0 2.801198-18.810315c1.435574-12.730984-7.69455-24.225116-20.419175-25.709973a22.51133 22.51133 0 0 0-2.737607-0.166927z m-28.765536-106.175258c-12.854987-0.011128-23.274425 10.401951-23.287144 23.250579a23.266477 23.266477 0 0 0 9.538699 18.805545 31.207443 31.207443 0 0 1 3.863173 3.309928 46.835012 46.835012 0 0 1 9.45603 14.233329c5.217668 11.737369 18.972472 17.021808 30.714611 11.79937 11.745318-5.224027 17.029757-18.972472 11.807319-30.71461a100.676198 100.676198 0 0 0-7.812194-14.365281c-0.174876-0.260724-0.341803-0.51509-0.516679-0.769455l-0.00636-0.006359-0.06836-0.106516-0.006359-0.011128-0.066771-0.100156-0.006359-0.00636a16.196711 16.196711 0 0 0-0.365651-0.534167l-0.007949-0.017487-0.06836-0.093798-0.012718-0.019077-0.068361-0.098566-0.004769-0.012719-0.3736-0.527808-0.006359-0.006359a0.947511 0.947511 0 0 0-0.06836-0.100156l-0.006359-0.017488-0.068361-0.093797-0.011129-0.012718-0.06836-0.098567-0.006359-0.006359c-0.100156-0.136721-0.192364-0.279802-0.29888-0.416523l-0.006359-0.012718-0.06836-0.092208-0.011129-0.025436-0.063591-0.085849-0.017488-0.025436-0.068361-0.087438-0.012718-0.019078-0.068361-0.092207c-0.07472-0.104926-0.14944-0.205082-0.222569-0.310008l-0.012718-0.012718-0.063592-0.087438-0.017487-0.025437-0.063592-0.085848-0.015898-0.031796-0.063591-0.074719-0.025436-0.031796-0.055643-0.085848-0.012718-0.012719-0.216211-0.29093-0.012718-0.019077-0.06836-0.087438-0.012719-0.017488c-0.025437-0.031796-0.042924-0.063591-0.062001-0.087438l-0.025437-0.031796-0.062001-0.079489-0.017488-0.025437-0.063591-0.087438-0.023847-0.023846-0.063591-0.081079c-0.047693-0.068361-0.098567-0.136721-0.14785-0.198723l-0.012718-0.012718-0.055643-0.07949-0.023847-0.031795-0.063591-0.081079-0.023847-0.031796-0.055642-0.07313-0.025437-0.038155-0.062001-0.074719-0.025437-0.031796-0.062001-0.079489-0.006359-0.012719-0.136722-0.174876-0.017487-0.023846-0.055643-0.068361-0.031795-0.042924-0.055643-0.068361-0.031796-0.038155-0.055642-0.07313-0.031796-0.038155-0.054052-0.06836-0.025437-0.036565-0.063591-0.07472-0.011129-0.012718c-0.068361-0.093797-0.14308-0.179645-0.2178-0.273443l-0.023847-0.031796-0.055642-0.066771-0.031796-0.044514-0.055642-0.062001-0.031796-0.042924-0.055642-0.068361-0.036565-0.042924-0.044514-0.063591-0.047694-0.047694-0.044514-0.063591-0.044513-0.055643-0.085849-0.098566-0.044514-0.057232-0.047693-0.055643-0.089028-0.111285-0.047694-0.055642-0.044513-0.049283-0.042925-0.057232-0.050873-0.055643-0.085848-0.111285-0.050873-0.049283-0.092207-0.119234-0.038155-0.042924-0.047694-0.055642-0.038155-0.049284-0.050873-0.055642-0.042924-0.057232-0.049283-0.055643-0.038155-0.049283-0.098566-0.111285-0.044514-0.057232-0.047694-0.055642-0.044514-0.047694-0.055642-0.06995c-0.025437-0.031796-0.050873-0.062002-0.07472-0.087438l-0.049283-0.055643-0.044514-0.049283-0.049283-0.055642-0.042925-0.049284-0.050873-0.063591-0.085848-0.098567-0.100156-0.111284-0.036565-0.049284-0.068361-0.074719-0.063591-0.068361-0.054053-0.063591-0.087438-0.111285-0.049283-0.049284-0.050873-0.055642-0.042924-0.049283-0.049284-0.057232-0.044514-0.047694-0.055642-0.063591-0.036565-0.042924-0.055642-0.063592-0.068361-0.07313-0.063591-0.06836-0.042925-0.049284-0.047693-0.057232-0.044514-0.047693-0.055642-0.057233-0.044514-0.049283-0.049284-0.055642-0.042924-0.050873-0.055642-0.068361-0.038155-0.031796-0.068361-0.07313-0.023846-0.031795-0.095387-0.104926-0.030206-0.025437-0.068361-0.079489-0.036565-0.038155-0.055642-0.062001-0.044514-0.049283-0.055643-0.055643-0.042924-0.049283-0.055642-0.063591-0.038155-0.036565-0.068361-0.07472-0.031795-0.031796c-0.060412-0.066771-0.122413-0.135132-0.190774-0.203492l-0.031796-0.038155-0.062002-0.068361-0.042924-0.042924-0.049283-0.055642-0.050873-0.049283-0.047694-0.057233-0.044514-0.047693-0.063591-0.063591-0.030206-0.036565-0.098566-0.100157-0.100157-0.104925-0.031795-0.025437-0.066771-0.07472-0.031796-0.036565-0.166927-0.168517-0.038155-0.042924-0.198723-0.198723-0.098566-0.104926-0.198723-0.198722-0.038155-0.044514-0.098567-0.098567-0.06836-0.063591-0.031796-0.036565-0.07472-0.068361-0.130362-0.130362c-0.036565-0.042924-0.079489-0.085848-0.124003-0.130362l-0.042924-0.036565-0.079489-0.087438-0.057233-0.049284-0.198722-0.198723-0.063592-0.055642-0.066771-0.07472-0.055642-0.049283-0.254365-0.254365c-0.044514-0.038155-0.087438-0.081079-0.130363-0.119234l-0.130362-0.130362-0.050873-0.042925-0.079489-0.079489-0.050873-0.044514-0.130362-0.130362-0.085849-0.07472-0.044514-0.049283-0.098566-0.087438-0.031796-0.031796-0.273442-0.254365-0.012719-0.012718c-0.036565-0.036565-0.07313-0.07472-0.117644-0.104926l-0.031795-0.036565-0.104926-0.095387-0.031796-0.030206-0.104925-0.092207-0.031796-0.031796-0.104926-0.098566-0.023846-0.019078-0.124004-0.111285-0.012718-0.012718-0.559603-0.502371-0.011129-0.012719-0.130362-0.111285-0.012718-0.012718-0.130363-0.119234-0.006359-0.006359a78.657701 78.657701 0 0 0-5.72004-4.588114 23.115447 23.115447 0 0 0-13.70552-4.483188z m0 0" fill="#FFD700" p-id="4066"></path><path d="M837.672644 930.922965c0 51.400869-41.668217 93.077035-93.077034 93.077035-51.400869 0-93.077035-41.676166-93.077035-93.077035 0-51.407228 41.676166-93.075445 93.077035-93.075444 51.407228 0 93.077035 41.668217 93.077034 93.075444z m0 0" fill="#CF94FF" p-id="4067"></path><path d="M678.781767 996.738398c36.347212 36.347212 95.280474 36.347212 131.629276 0l0.098566-0.106515 0.038155-0.031796 0.068361-0.066771 0.036565-0.042924 0.162158-0.162158 0.042924-0.049283 0.055642-0.055642 0.049284-0.044514 0.057232-0.055643 0.042924-0.049283 0.055642-0.055642 0.049284-0.044514 0.055642-0.062002 0.14308-0.14308 0.068361-0.07313 0.031796-0.031796c0.031796-0.031796 0.068361-0.068361 0.098566-0.104926l0.025437-0.025436 0.07472-0.07472 0.042924-0.042924 0.055642-0.063592 0.100157-0.098566 0.042924-0.049283 0.100156-0.100157 0.047694-0.062001 0.151029-0.14785 0.055642-0.063591 0.104926-0.104926 0.038155-0.042924 0.062001-0.068361 0.036565-0.038155a0.95387 0.95387 0 0 1 0.07472-0.079489l0.036565-0.044514 0.081079-0.085848 0.031796-0.031796 0.062001-0.07472 0.042925-0.042924 0.055642-0.063591 0.044514-0.042924 0.055642-0.062002 0.036565-0.042924 0.055643-0.062001 0.044514-0.042925 0.055642-0.063591 0.036565-0.042924 0.063591-0.062002 0.036565-0.042924 0.068361-0.06836 0.031796-0.038155 0.066771-0.07313 0.031795-0.031796c0.019077-0.031796 0.049283-0.055642 0.07472-0.087438l0.017488-0.017488 0.093797-0.106515 0.036565-0.036565 0.063591-0.068361 0.031796-0.044514 0.060412-0.066771 0.038154-0.038154 0.055643-0.068361 0.036565-0.036565 0.055642-0.068361 0.044514-0.044514 0.055643-0.06836 0.036565-0.036565 0.063591-0.068361 0.122413-0.14944 0.068361-0.06836 0.031796-0.036565 0.074719-0.093798 0.019078-0.012718c0.062002-0.07313 0.124003-0.14785 0.190774-0.21621l0.012718-0.019078c0.025437-0.031796 0.057232-0.063591 0.081079-0.093797l0.025437-0.023847c0.023847-0.031796 0.042924-0.055642 0.06836-0.081079l0.023847-0.036565 0.068361-0.06836 0.031795-0.044514 0.062002-0.068361 0.031796-0.036565 0.062001-0.068361 0.036565-0.049283 0.055642-0.063591 0.038155-0.036565 0.092208-0.111285 0.06836-0.081079 0.019078-0.025436 0.087438-" fill="#C175FF" p-id="4068"></path></svg>