<svg xmlns="http://www.w3.org/2000/svg" viewBox="0 0 24 24" role="img" aria-label="LinkedIn">
  <path fill="#8f9ba8" d="M20.447 20.452h-3.554v-5.569c0-1.328-.024-3.037-1.85-3.037-1.853 0-2.136 1.447-2.136 2.941v5.665H9.353V9h3.414v1.561h.049c.475-.9 1.637-1.85 3.368-1.85 3.602 0 4.267 2.371 4.267 5.455v6.286h-.004ZM5.337 7.433a2.063 2.063 0 1 1 0-4.126 2.063 2.063 0 0 1 0 4.126ZM7.114 20.452H3.556V9h3.558v11.452ZM22.225 0H1.771C.792 0 0 .774 0 1.729v20.542C0 23.226.792 24 1.771 24h20.451C23.2 24 24 23.226 24 22.271V1.729C24 .774 23.2 0 22.222 0h.003Z"/>
</svg>
